/* XPM */
static char *ac1de34c3821471f9ae4aed7c4055525rplf4iwTlmHAJUeI[] = {
/* columns rows colors chars-per-pixel */
"32 32 10 1 ",
"  c #262931",
". c #39404C",
"X c #60544A",
"o c #695C52",
"O c #716658",
"+ c #4D5D67",
"@ c #7E7466",
"# c #857E72",
"$ c #918B75",
"% c #6C7A83",
/* pixels */
".+% .. @OOO@OO@#$##@O@@####@@oOO",
"+%+ . .@###@@o@@#@#@@O@@@@@@oO@@",
".+. +..#$###@oO@@@@@@O@@@@@oo@@#",
" .##+. ##$$#@@oO@@@@OoO@@OOOO@@@",
".@@@.  ##@##@@XoOOoXoO@####@@@@@",
"++@O   @##@@@@X@###oX@@###$#@OO@",
"  Oo .+  @#@@@O@$##@o@#@$$#@#ooO",
" ##@ ..  @@@OoO@@$$@oO@#@@@@@X@#",
"# ## +@@OooO@XoO@@@@O@O@@@@@X@##",
"$##$##@O@###$@XXXXXOO@@oO@@Oo@@#",
"#$$$#@@@##$$#@ .++.XOOO@###@O@@@",
"@@@@@@@O@###@X.++%+ Xo####$#@O@@",
"@##@@@@oO@@@@X++%++ XO@#$$@#@oO#",
"o@@@@@OXoO@@X .+++..X@@##@#@@O@@",
"@ooOOooX@##@$   .. $X$$@@@@@O@#$",
"#oO@#@Oo####@$  . $.++. #@@@o@##",
"@O@@##oX#$##$@$$$$X++%+ $@@Xo@@@",
"@oO@@OXo@#$$$@oXO@X+++%. X@@Oo@@",
"OXoOOoo@@@#@@@Xo@##.+++..$##@OoO",
"XoO@@@Xo@@@@@XXX#$#  .. $#$##@@O",
"oO#####@XO@@.++. $$$#$$$@@#$$#@@",
"O@#$####@XoX+%++.X#@@@OOO@@@@@@@",
"o@@#$$$#@XO$++%+.X@#@O@$##@@##@@",
"X@@@@@@@@o@#.++. $#@O@##$$#@@@Oo",
"oO@@#@#@@O@@ ..  @@Oo@@####@OXXX",
"##O@@#@#@O@@@O$$###@O@#@@#@@@o@@",
"###O@@@@OoO@O@$##$##oO@#@@@@O@##",
"#$#@O@@OoXoO@@$$$##@@oO@@@@O@#$#",
"$#@@oXXo@@XX@@@@##@@@OXoOOOo@#$$",
"@@@@oO@$##@oO@@#@@@@OX@##@@O@@@@",
"##@OX@##$$#@O@@@#@@Oo@#$###@O@@#",
"OOoXX@@####@@OO@@@@@oO@#$##@ooOO"
};
