/* XPM */
static char *d351a0aed5c34777ddf4b7a06afca42a7mT4aLcRJz7DdQA7[] = {
/* columns rows colors chars-per-pixel */
"32 32 8 1 ",
"  c None",
". c #2D404F",
"X c #324F61",
"o c #566CA9",
"O c #5CA1C6",
"+ c #8CCCCA",
"@ c #B6EAD3",
"# c #FCFFFE",
/* pixels */
"                                ",
"                                ",
"                                ",
"                                ",
"        XXXXXXXXXXXXXXXX        ",
"       X#@@@@@@@@@@@@@##X       ",
"      Xo@#@@@@@@@@@@####@X      ",
"     Xooo@#############@ooX     ",
"    XooO++@#@@###@++++@#oooX    ",
"   XoO++++###@@###@++++@#oOOX   ",
"  XO+++++@####@@###@++++@#OOOX  ",
" XO++++++######@@###@++++@@OOOX ",
" XoO++++@#######@@###@++++@@OOX ",
" .ooOO+@#########@@###@++++OoO. ",
" .OoooO+@#########@@####+OOoOO. ",
"  .Ooooo+@@@@@@@@@@@@@@+OooO+.  ",
"   .OooooO@#+ooooooooooooo++.   ",
"    .+Oooo+#@OOooooooooOO++.    ",
"     .+OooO@#+OOooooooO+++.     ",
"      .+OOO+#+OOOooooO+@@.      ",
"       .+OOO@#+OOOOOO+#@.       ",
"        .+OO+#++OOOO+#@.        ",
"         .+OO@@+++++#@.         ",
"          .OO+@++++@@.          ",
"           .OO@@++@@.           ",
"            .O+@@@@.            ",
"             .O@@@.             ",
"              .+@.              ",
"               ..               ",
"                                ",
"                                ",
"                                "
};
