/* XPM */
static char *_c967b7577114d66c520dabb4a74fa97B98v9ZtBbTIQOg7m[] = {
/* columns rows colors chars-per-pixel */
"32 32 8 1 ",
"  c None",
". c #050D3D",
"X c #08245B",
"o c #0E3A91",
"O c #1467A6",
"+ c #20A8D8",
"@ c #1BDBD2",
"# c #D8FFF5",
/* pixels */
"                                ",
"                                ",
"                                ",
"                                ",
"      .......      .......      ",
"     .#@@@@@#.    .#@@@@@#.     ",
"    .@##@@@@#+.  .+#@@@@#@+.    ",
"   .@@@##@@@#+O..O+#@@@#@+++.   ",
"  .@@@@@#####@+OO+@#####++++O.  ",
"  .@@@@#######@++@#######++OO.  ",
"  .######@@@@######@@@@######.  ",
"  X@@@##@@@@@@####@@@@@@##@@@.  ",
"  X@@+#@@@@@@@@##@@@@@@@@#+@@.  ",
"  X@++@@@@@+++@@@@+++@@@@@++@.  ",
"  X+++@@@@+++++@@+++++@@@@+++.  ",
"  XOOO+@@@++++++++++++@@@#OOO.  ",
"  XOOo++@@@++++++++++@@@##oOO.  ",
"   XOo+++#@@++++++++#@@###oO.   ",
"   Xoo++OO#@@++++++#@@####oo.   ",
"    Xo+++++#@@++++#@@#####o.    ",
"     Xo@##@@#@@++@@@#@@@@+.     ",
"      XoOOo++#@@@@@##+@@@.      ",
"       XoOo+++@@@@###++@.       ",
"        Xoo++OO@@####++.        ",
"         Xo+@@++#####+.         ",
"          XoOOOO@@@@+.          ",
"           XoOOo+@@@.           ",
"            .oOo++@.            ",
"             .oo++.             ",
"              .o+.              ",
"               ..               ",
"                                "
};
