/* XPM */
static char *_1fdfbc0e01545dfc4a24423a9dc45f93JVDd1rUJ9JF5lmp[] = {
/* columns rows colors chars-per-pixel */
"32 32 6 1 ",
"  c None",
". c #A73C11",
"X c #CA5912",
"o c #E89A1C",
"O c #F5BB20",
"+ c #FEE93B",
/* pixels */
"                                ",
"                                ",
"                                ",
"                                ",
"                   .            ",
"                  ..            ",
"                 .X.            ",
"                .XX.            ",
"               .Xo.             ",
"              .XoO.             ",
"         .    .oO+X             ",
"         ..   Xo++oX            ",
"         .X.  Xo+OOoX           ",
"          .X.  XOoOooX          ",
"          .X.  XOooooX          ",
"          .oX .XooooOoX         ",
"          XOo..ooOooOOX         ",
"          XOO.XooOoOO+X         ",
"          XOOXooO+oO++X         ",
"         XooOooO++O+++o         ",
"         XoOooo+++++++X         ",
"         XO+OoO+OO+O+OX         ",
"         XO++OOOooOoOo          ",
"         .XO+OOoOooOoX          ",
"          XoOOoOOoOoX           ",
"          .XoOoOoXoX            ",
"           ..oooX.X             ",
"            .XoX..              ",
"             .X..               ",
"                                ",
"                                ",
"                                "
};
