/* XPM */
static char *e9b0c1e0c1f94af2d6da4912cb26bd16lt6gsdjGJ2qUYArX[] = {
/* columns rows colors chars-per-pixel */
"32 32 12 1 ",
"  c #2A251F",
". c #2E2922",
"X c #383229",
"o c #494233",
"O c #7A7B6F",
"+ c #90938A",
"@ c #A1A4A0",
"# c #ACADAB",
"$ c #B0B1AC",
"% c #B9B9B8",
"& c #C2C2BB",
"* c #C9C9C2",
/* pixels */
"+****+%%&&&&&&&&&&&&&&&&%%+....+",
"+****+%%%%%%%%%%%%%%%%%%%%+.oo.+",
"+****+@%%%%%%%%%%%%%%%%%%@+.oo.+",
"+**&*++++++++++++++++++++++.XX.+",
"+**&*OOOOOOOOOOOOOOOOOOOOOO XX +",
"+&*&&O++++++O++++++O++++++O .. +",
"+&&&&O@@@@@@O@@@@@@O@@@@@@O    +",
"+&%&&O@@@@@@O@@@@@@O@@@@@@O .. +",
"+&&%&O%%%%%%+%%%%%%+%%%%%%O@@@@+",
"+&&&%+%&&&&%+%&&&&%+%&&&&%+%%%%+",
"+&&&&+&&&&&&+&&&&%&+&&&&&&+&&&&+",
"+&&&&+&&**&&+&&**%%+&&**&&+&&&&+",
"+&&&&+&****&@&**%%%@&****&+&&&&+",
"+&&&&+&****&@&***%%@&****&+&&&&+",
"+&&&&+&****&@&****&@&****&+&&&&+",
"+&&&&+&****&@%****&@&****%+&&&&+",
"+&&&&+&****&@%*%**&@&***%%+&&&&+",
"+&&&&+&&**&&@%%%*&&@&&**&%+&&&&+",
"+&&%&+&&&&&&@$%%%&&@&&&&%%+&&&&+",
"+&&&&+&&&&&$@$$%&&&@&&&&$%+&&&&+",
"+&&%&+&&&&&$@$%&&&&@&&&$$$+&%&&+",
"+%&%%+%&&&&#@##&&&%@%&&&$#+%%&%+",
"+%%%%+%%%%%%@##%%%%@%%%%##+%%%%+",
"+%%%%+%%%%%%@#%%%%%@%%%%%#+%%%%+",
"+%%%%+%%%%%%@%%%%%%@%%%%%%+%%%%+",
"+%%%%++++++++++++++++++++++%%%%+",
"+%%%%+%******************#+%%%#+",
"+%%%%+%%&&&&&&&&&&&&&&&&##+#%##+",
"+%%%%+%%%%%%%%%%%%%%%$%###+###@+",
"+%%%%+@%%%%%%%%%%%%%$$###@+##@@+",
"+@@@@++++++++++++++++++++++@@@@+",
"OOOOOOOOOOOOOOOOOOOOOOOOOOOOOOOO"
};
