/* XPM */
static char *_fe180e2d5234158a15d7cc412996d03llkdUPi1HFXntFkJ[] = {
/* columns rows colors chars-per-pixel */
"32 32 12 1 ",
"  c None",
". c #383229",
"X c #494233",
"o c #6A675B",
"O c #7A7B6F",
"+ c #90938A",
"@ c #A1A4A0",
"# c #ACADAB",
"$ c #B0B1AC",
"% c #B9B9B8",
"& c #C2C2BB",
"* c #C9C9C2",
/* pixels */
"oooooooooooooooooooooooooooooooo",
"+##$$+%%*****************%+%%%%+",
"+##$%+$%%%&&&&&&&&&&&&&&%%+%%%%+",
"+$#%#+$$$&&&&&&&&&&&&&&%%%+%%%%+",
"+$$##+##$$%%%%%%%%%%%%%%%@+%%%%+",
"+$$$#++++++++++++++++++++++%%%%+",
"+%$$%+OOOOOOOOOOOOOOOOOOOO+%%%%+",
"+%%%%+     ++      ++     +%%%%+",
"+%&&%+     @@      @@     +%&%%+",
"+&&&&+     @@      @@     +&&%%+",
"+&&&&+     %@      %@     +&&&%+",
"+&&&&+     %@      %@     +&&&%+",
"+&&&&+     %@      %@     +&&%%+",
"+&&&&+%%&&************&&%%+&%&%+",
"+&&&&+@@@@@%@@@@@@@%@@@@@@+&&&&+",
"+%&&&+OOOOO%@OOOOOO%@OOOOO+&&&&+",
"+%%&&+     %@      %@     +&&&&+",
"+%%&%+     %@      %@     +&&&&+",
"+%%%%+     %@      %@     +&&&&+",
"+%%%%+     %@      %@     +&&&&+",
"+%&%%+     %@      %@     +&**&+",
"+%&%&+     %@      %@     +****+",
"+&&&&+%%&&************&&%%+****+",
"+&&&&+@@@@@%@@@@@@@%@@@@@@+****+",
"+*&&&+OOOOO%@OOOOOO%@OOOOO+****+",
"+**&*+     %@      %@     +****+",
"+&***+     %@      %@     +&**&+",
"+&***+     %@      %@     +&*&%+",
"+****+     %@      %@     +&&&%+",
"+****+     %@      %@     +&&%%+",
"+****++++++++++++++++++++++&&%%+",
"+****+%******************%+.XX.+"
};
