/* XPM */
static char *_c61a16e7434431bd01b4ea387447af9SE20gfH2yYU6TpZ6[] = {
/* columns rows colors chars-per-pixel */
"32 32 193 2 ",
"   c None",
".  c #060606",
"X  c #01060A",
"o  c #06090B",
"O  c #0B0B0C",
"+  c #140F0D",
"@  c #14110F",
"#  c #120E11",
"$  c #1C1213",
"%  c #0F0D11",
"&  c #2D1B14",
"*  c #281817",
"=  c #331E15",
"-  c #362016",
";  c #3A2117",
":  c #3C2D16",
">  c #3C2D19",
",  c #3E211B",
"<  c #381D21",
"1  c #192337",
"2  c #272E3A",
"3  c #393C3E",
"4  c #43251B",
"5  c #472B1B",
"6  c #562E1D",
"7  c #423119",
"8  c #5E341C",
"9  c #4B2723",
"0  c #53292B",
"q  c #562C23",
"w  c #5B3527",
"e  c #553923",
"r  c #4D3831",
"t  c #67322A",
"y  c #68332C",
"u  c #653B2D",
"i  c #663A28",
"p  c #7B3E25",
"a  c #793D27",
"s  c #7E3C33",
"d  c #4B423A",
"f  c #6D4E22",
"g  c #69432D",
"h  c #7E4126",
"j  c #6F4330",
"k  c #604F3E",
"l  c #785637",
"z  c #684B37",
"x  c #3E4243",
"c  c #434546",
"v  c #6D5445",
"b  c #61484B",
"n  c #814227",
"m  c #82422A",
"M  c #874B2F",
"N  c #9C4E2D",
"B  c #96472F",
"V  c #9F502D",
"C  c #834B34",
"Z  c #94423C",
"A  c #8F5C35",
"S  c #925E35",
"D  c #A3512D",
"F  c #A65B2D",
"G  c #A24E33",
"H  c #A1473E",
"J  c #AE5633",
"K  c #AC5C31",
"L  c #A65731",
"P  c #B15632",
"I  c #B65A35",
"U  c #A54F2E",
"Y  c #956A2D",
"T  c #9B6D32",
"R  c #986237",
"E  c #A86F39",
"W  c #B96333",
"Q  c #BE7B39",
"!  c #B17431",
"~  c #AF602F",
"^  c #C55E3C",
"/  c #C56136",
"(  c #CB6939",
")  c #C27C3B",
"_  c #D37236",
"`  c #DE7A3D",
"'  c #D8783A",
"]  c #D06D37",
"[  c #8C5D54",
"{  c #A44941",
"}  c #AA5841",
"|  c #B35042",
" . c #BB5A48",
".. c #B55650",
"X. c #8D665B",
"o. c #B86940",
"O. c #AA6C55",
"+. c #B37458",
"@. c #B76967",
"#. c #C56443",
"$. c #CE6D43",
"%. c #C47159",
"&. c #C87E57",
"*. c #CA7F60",
"=. c #BA8335",
"-. c #B88236",
";. c #C68A3D",
":. c #CA8D3D",
">. c #DC833D",
",. c #D4873D",
"<. c #D2913F",
"1. c #E2963F",
"2. c #BD8542",
"3. c #BD9459",
"4. c #CB8D42",
"5. c #CA9041",
"6. c #D49441",
"7. c #DA9542",
"8. c #DD9943",
"9. c #D4835C",
"0. c #DD8D5E",
"q. c #C9995C",
"w. c #DA8F41",
"e. c #E59541",
"r. c #EA9B40",
"t. c #E9984B",
"y. c #F19F44",
"u. c #E5A142",
"i. c #EBA445",
"p. c #EEAF4F",
"a. c #F4AC46",
"s. c #F4A846",
"d. c #F9B147",
"f. c #F8B148",
"g. c #FDB754",
"h. c #CD8164",
"j. c #D58867",
"k. c #D28665",
"l. c #D99469",
"z. c #E09060",
"x. c #E79D70",
"c. c #DAAD6A",
"v. c #D1A366",
"b. c #E6A864",
"n. c #E3B461",
"m. c #ECB16E",
"M. c #F2B672",
"N. c #FDC16A",
"B. c #FAC575",
"V. c #FFCA79",
"C. c #F6C273",
"Z. c #56699B",
"A. c #6E6C80",
"S. c #7F8DA5",
"D. c #A7958C",
"F. c #BCBF9A",
"G. c #8A94AB",
"H. c #969CA3",
"J. c #9DB4B4",
"K. c #9EA2A3",
"L. c #A2A8AE",
"P. c #BDA9A3",
"I. c #C49C96",
"U. c #E3AA94",
"Y. c #D2B9A8",
"T. c #C8B6B0",
"R. c #EDBFAB",
"E. c #D3C2BC",
"W. c #D8C4BF",
"Q. c #EBC6AE",
"!. c #FFE0B2",
"~. c #84A4D9",
"^. c #B9BCC0",
"/. c #BBCDC1",
"(. c #9ECAE8",
"). c #BFD1E8",
"_. c #C6C8CA",
"`. c #D6CBCC",
"'. c #E7D6CC",
"]. c #F4DCD0",
"[. c #E5CFCA",
"{. c #FDECD3",
"}. c #FEEBDA",
"|. c #FFF4DB",
" X c #FFF0D5",
".X c #F0E0CC",
"XX c #D8DFE5",
"oX c #DBEFFB",
"OX c #FBEBE7",
"+X c #E2EAF0",
"@X c #F6FBFF",
"#X c #FEFFFF",
"$X c #F4F6F8",
/* pixels */
"    o o o o         o o O O O O O O o o         o o o o o o     ",
"    : 7 7 :         7 > * $ $ $ $ * > 7         : 7 7 7 7 >     ",
"o > Y =.=.Y > X X 7 T T w < < < < w T T 7 X X > Y -.-.-.=.Y > o ",
"o 7 3.V.V.q.g * $ e ;.8.R u 0 0 u R 8.;.e $ * g q.V.B.N.g.=.7 o ",
". d T.|.|.Q.+.p 9 g ;.a.7.E u u E 7.a.;.g 9 p +.Q.|.|.!.N.-.7 o ",
". c _.#XOXQ.z.K y j ;.f.d.6.A A 6.d.f.;.j y K z.Q.OX#X}.M.! 7 o ",
". c _.OXU.0.t.) u j ;.a.a.i.6.6.i.a.a.;.j u ) t.0.U.OX}.x.F ; o ",
". c K.P.O.W 1.6.S S 6.a.a.a.a.a.a.a.a.6.S S 6.r.' 9.Y.T.O.p = o ",
"    x r w M <.i.7.6.i.a.a.a.a.a.a.a.a.i.6.6.i.a.r.4.X.b 9 =     ",
"    = 4 w S 6.i.:.-.-.;.u.a.a.a.a.u.;.-.-.:.u.a.a.6.A w 4 =     ",
"o = p F Q 6.i.:.f : : f ;.a.a.a.a.;.f : : f :.f.a.i.<.Q F p = o ",
"o ; N ` y.a.i.2.k 2 1 d 2.a.a.a.a.2.d 1 2 k 2.i.a.a.d.y.` N ; o ",
"o ; N ` i.i.>.&.D.S.Z.A.q.a.a.a.a.q.A.Z.S.D.&.>.r.f.d.y.` N ; o ",
"o = p K Q ) K +.E.).~.G.v.u.4.4.u.v.G.~.).W.h.( ) ;.;.Q K p = o ",
"    = 5 u u t X.`.oX(.J.c.:.l l :.c.J.(.oX].j.P M j j u 5 =     ",
"    o $ 9 y t [ Y.'./.F.n.:.l l :.n.F./.'.R.9.P s y y 9 $ o     ",
"    o = m J J o.&.l.c.n.p.u.5.5.u.p.n.c.l.9.$./ P J J m = o     ",
"    o - h V N N U W ,.e.e.r.r.r.r.e.e.>.( I P L V V D p & o     ",
"        ; ; ; 4 q s } #.] _ _ _ _ ] #. .| H s w 4 ; ; & @ o     ",
"        o o o # * 0 Z  .%.*.k.j.j.h.@.@...Z 0 * # o o @ & ;     ",
"                % , B %.I.T.[.].].[.T.I.%.B , #     X & p n ; o ",
"                = 8 K l.W.+X@X#X#X@X+XE.h.D 6 =     = i J V ; o ",
"            X = p ~ ,.m..X@X#X#X#X#X@X[.k.I D h & = h J / N ; o ",
"            = q G ' r.C.{.#X#X#X#X#X#X].l.] ( G 6 5 n J / N ; o ",
"        o - h G | #.e.C.{.#X#X#X#X#X#X{.m.>.#.| G n 6 i J V ; o ",
"        o ; V ^ { } w.C.{.#X@X$X$X@X#X XB.7.} { ^ V - & a n ; o ",
"        o ; V I s C :.B.|.#X+XXXXX+X#X|.B.:.C s I D ; + & -     ",
"        o ; h m 9 i Q b.Y.^.L.H.H.L.^.Y.b.Q i 9 m n ; o o o     ",
"            - & $ 5 K o.v c 3 3 3 3 c v o.K 5 $ & -             ",
"            o o o ; n a & . . . . . . & a n ; o o o             ",
"                    = & + o         o + & =                     ",
"                    o O O O         O O O o                     "
};
