/* XPM */
static char *_19ef3cc27274668bc5ff63f6f28ec05nVSlhQdasOvnElXR[] = {
/* columns rows colors chars-per-pixel */
"32 32 9 1 ",
"  c #241D1C",
". c #272727",
"X c #2B2A2A",
"o c #352C21",
"O c #353030",
"+ c #4C412D",
"@ c #4A4240",
"# c #554E4B",
"$ c #57504C",
/* pixels */
"...+oo+@@@@@@@+oo+XXXXXXX+oo+...",
"..+o$$o+@@@@@+oXXo+XXXXX+o##o+..",
"..+o$$o+@@@@@+oXXo+XXXXX+o##o+..",
".+o$$$$o+@@@+oXXXXo+XXX+o####o+.",
".+o$$$$o+@@@+oXXXXo+XXX+o####o+.",
"+o$$$$$$o+@+oXXXXXXo+X+o######o+",
"+o$$$$$$o+@+oXXXXXXo+X+o######o+",
"o$$$$$$$$o+oXXXXXXXXo+o########o",
"o$$$$$$$$o oXXXXXXXXo o########o",
" o$$$$$$o O oXXXXXXo $ o######o ",
" o$$$$$$o O oXXXXXXo $ o######o ",
"X o$$$$o OOO oXXXXo $$$ o####o X",
"X o$$$$o OOO oXXXXo $$$ o####o X",
"XX o$$o OOOOO oXXo $$$$$ o##o XX",
"XX o$$o OOOOO oXXo $$$$$ o##o XX",
"XXX ++ OOOOOOO ++ $$$$$$$ ++ XXX",
"XXX+oo+OOOOOOO+oo+$$$$$$$+oo+XXX",
"XX+o##o+OOOOO+o..o+$$$$$+oOOo+XX",
"XX+o##o+OOOOO+o..o+$$$$$+oOOo+XX",
"X+o####o+OOO+o....o+$$$+oOOOOo+X",
"X+o####o+OOO+o....o+$$$+oOOOOo+X",
"+o######o+O+o......o+$+oOOOOOOo+",
"+o######o+O+o......o+$+oOOOOOOo+",
"o########o+o........o+oOOOOOOOOo",
"o########o o........o oOOOOOOOOo",
" o######o @ o......o X oOOOOOOo ",
" o######o @ o......o X oOOOOOOo ",
". o####o @@@ o....o XXX oOOOOo .",
". o####o @@@ o....o XXX oOOOOo .",
".. o##o @@@@@ o..o XXXXX oOOo ..",
".. o##o @@@@@ o..o XXXXX oOOo ..",
"... oo @@@@@@@ oo XXXXXXX oo ..."
};
